<svg width="59" height="64" viewBox="0 0 118 128" fill="none" xmlns="http://www.w3.org/2000/svg">
<rect width="59" height="64" fill="none"/>
<path fill-rule="evenodd" clip-rule="evenodd" d="M29 28C17.9543 28 9 36.9543 9 48V108C9 119.046 17.9543 128 29 128H89C100.046 128 109 119.046 109 108V48C109 36.9543 100.046 28 89 28H29ZM74 61C68.4772 61 64 65.4771 64 71V86C64 91.5228 68.4771 96 74 96H89C94.5228 96 99 91.5229 99 86V71C99 65.4772 94.5229 61 89 61H74Z" fill="#5c5c5c"/>
<path d="M52.9001 2.69574C56.4957 -0.0721828 61.5043 -0.0721844 65.0999 2.69574L113.658 40.0759C121.223 45.8994 117.105 58 107.558 58H10.4417C0.894961 58 -3.2231 45.8994 4.34175 40.0759L52.9001 2.69574Z" fill="#5c5c5c"/>
</svg>
